<?xml version="1.0" encoding="utf-8"?>
<!-- Generator: Adobe Illustrator 22.1.0, SVG Export Plug-In . SVG Version: 6.00 Build 0)  -->
<svg version="1.1" id="Слой_1" xmlns="http://www.w3.org/2000/svg" xmlns:xlink="http://www.w3.org/1999/xlink" x="0px" y="0px"
	 viewBox="0 0 343 363" style="enable-background:new 0 0 343 363;" xml:space="preserve">
<g>
	<g>
		<g>
			<path d="M154.2,35.4L144,33.1V0h-22v33.1l-10.3,2.2c-38.1,8.3-68.1,38.2-76.3,76.4L33.1,122H0v22h33.1l2.2,10.3
				c6,27.9,24,51.8,48.5,65.7v-7.7l11.8-11.8c-8.6-4.8-16.3-11.2-22.6-18.9C62,167.8,55.9,150.6,55.9,133
				c0-42.5,34.6-77.1,77.1-77.1c17.6,0,34.8,6.1,48.5,17.2c7.7,6.3,14.1,14,18.9,22.6l11-11h9C206.6,59.8,182.5,41.5,154.2,35.4z"/>
		</g>
		<g>
			<path d="M299,108.3l0,14.3l-71.9,0l-16.5,16.5c-2.7,38.5-33.6,69.4-72.2,72.1l-16.6,16.6v133.6h22v-128l10.2-2.2
				c38.1-8.3,68.1-38.2,76.4-76.3l2.2-10.2l66.3,0l0,14.4l43.9-25.4L299,108.3z"/>
		</g>
	</g>
</g>
</svg>
