<?xml version="1.0" encoding="utf-8"?>
<!-- Generator: Adobe Illustrator 22.1.0, SVG Export Plug-In . SVG Version: 6.00 Build 0)  -->
<svg version="1.1" id="Слой_1" xmlns="http://www.w3.org/2000/svg" xmlns:xlink="http://www.w3.org/1999/xlink" x="0px" y="0px"
	 viewBox="0 0 47.6 47.6" style="enable-background:new 0 0 47.6 47.6;" xml:space="preserve">
<style type="text/css">
	.st0{fill:url(#SVGID_1_);}
	.st1{fill:url(#SVGID_2_);}
	.st2{fill:url(#SVGID_3_);}
	.st3{fill:url(#SVGID_4_);}
</style>
<g>
	<g>
		<linearGradient id="SVGID_1_" gradientUnits="userSpaceOnUse" x1="1.473030e-02" y1="23.8" x2="47.6147" y2="23.8">
			<stop  offset="0" style="stop-color:#297E41"/>
			<stop  offset="1" style="stop-color:#32A456"/>
		</linearGradient>
		<path class="st0" d="M23.8,0C10.7,0,0,10.7,0,23.8s10.7,23.8,23.8,23.8s23.8-10.7,23.8-23.8S36.9,0,23.8,0z M23.8,44.8
			c-11.6,0-21-9.4-21-21s9.4-21,21-21s21,9.4,21,21S35.4,44.8,23.8,44.8z"/>
	</g>
	<g>
		<linearGradient id="SVGID_2_" gradientUnits="userSpaceOnUse" x1="7.3347" y1="24.03" x2="39.8548" y2="24.03">
			<stop  offset="0" style="stop-color:#297E41"/>
			<stop  offset="1" style="stop-color:#32A456"/>
		</linearGradient>
		<path class="st1" d="M16.4,7.5L15,8.3l2,3.5l1.4-0.8L16.4,7.5z M9.6,13.7l-0.8,1.4l3.5,2l0.8-1.4L9.6,13.7z M12.3,29.5l-3.5,2
			l0.8,1.4l3.5-2L12.3,29.5z M17.1,34.8l-2,3.5l1.4,0.8l2-3.5L17.1,34.8z M32.3,34.8l-1.4,0.8l2,3.5c0.5-0.3,0.9-0.6,1.3-0.9
			L32.3,34.8z M37,29.5l-0.8,1.4l2.9,1.7c0.3-0.5,0.5-0.9,0.7-1.4L37,29.5z M7.3,21.8v3h4.3v-3H7.3z M24,36.2v4.3h2.2v-4.3H24z"/>
		<linearGradient id="SVGID_3_" gradientUnits="userSpaceOnUse" x1="8.8447" y1="23.28" x2="39.8548" y2="23.28">
			<stop  offset="0" style="stop-color:#297E41"/>
			<stop  offset="1" style="stop-color:#32A456"/>
		</linearGradient>
		<path class="st2" d="M16.4,7.5L15,8.3l2,3.5l1.4-0.8L16.4,7.5z M15.7,8.5l0.5-0.3l1.5,2.6l-0.5,0.3L15.7,8.5z M9.6,13.7l-0.8,1.4
			l3.5,2l0.8-1.4L9.6,13.7z M12.2,16.4l-2.6-1.5l0.3-0.5l2.6,1.5L12.2,16.4z M37,29.5l-0.8,1.4l2.9,1.7c0.3-0.5,0.5-0.9,0.7-1.4
			L37,29.5z M38.9,31.9l-2-1.2l0.3-0.5l2,1.2C39.1,31.5,39,31.7,38.9,31.9z M12.3,29.5l-3.5,2l0.8,1.4l3.5-2L12.3,29.5z M9.5,31.7
			l2.6-1.5l0.3,0.5l-2.6,1.5L9.5,31.7z M32.3,34.8l-1.4,0.8l2,3.5c0.5-0.3,0.9-0.6,1.3-0.9L32.3,34.8z M31.6,35.8l0.5-0.3l1.5,2.5
			c-0.2,0.1-0.3,0.2-0.5,0.3L31.6,35.8z M17.1,34.8l-2,3.5l1.4,0.8l2-3.5L17.1,34.8z M16.2,38.4l-0.5-0.3l1.5-2.6l0.5,0.3L16.2,38.4
			z"/>
	</g>
	<linearGradient id="SVGID_4_" gradientUnits="userSpaceOnUse" x1="23.4748" y1="14.83" x2="41.4148" y2="14.83">
		<stop  offset="0" style="stop-color:#297E41"/>
		<stop  offset="1" style="stop-color:#32A456"/>
	</linearGradient>
	<path class="st3" d="M23.5,5.9v17.9h17.9C41.4,13.9,33.4,5.9,23.5,5.9z M28.5,20.3c0,0.5-0.4,0.9-0.8,0.9c-0.4,0-0.8-0.4-0.8-0.9
		v-3.5c0-0.5-0.4-0.9-0.9-0.9c-0.5,0-0.9-0.2-0.9-0.5c0-0.3,0.2-0.5,0.5-0.5c0.2,0,0.4,0,0.5-0.1c0.3-0.1,0.6-0.2,0.8-0.4
		c0.1-0.1,0.2-0.3,0.3-0.6c0-0.1,0-0.1,0-0.2c0-0.1,0.3-0.2,0.7-0.2c0.3,0,0.6,0.4,0.6,0.9V20.3z M35.4,20.5
		c-0.5,0.6-1.2,0.8-2.1,0.8c-0.7,0-1.3-0.2-1.8-0.6c-0.3-0.2-0.5-0.5-0.6-0.8c-0.2-0.5,0.1-0.9,0.6-0.9c0.4,0,0.8,0.2,0.9,0.4
		c0.1,0.2,0.1,0.3,0.2,0.4c0.2,0.2,0.4,0.3,0.8,0.3c0.4,0,0.7-0.1,0.9-0.4c0.2-0.3,0.3-0.6,0.3-1c0-0.4-0.1-0.7-0.3-1
		c-0.2-0.3-0.5-0.4-0.9-0.4c-0.2,0-0.3,0-0.5,0.1c-0.1,0-0.2,0.1-0.3,0.2c-0.2,0.1-0.5,0.3-0.9,0.3c-0.4,0-0.6-0.4-0.6-0.9l0.3-2.5
		c0.1-0.5,0.5-0.9,1-0.9h2.4c0.5,0,0.9,0.3,0.9,0.6c0,0.4-0.4,0.6-0.9,0.6h-1.3c-0.5,0-1,0.4-1,0.9c-0.1,0.5,0,0.8,0.1,0.7
		c0.1-0.1,0.2-0.1,0.3-0.2c0.2-0.1,0.5-0.1,0.8-0.1c0.6,0,1.2,0.2,1.7,0.6c0.5,0.4,0.7,1.1,0.7,1.9C36.1,19.3,35.9,20,35.4,20.5z"/>
</g>
</svg>
