<?xml version="1.0" encoding="iso-8859-1"?>
<!-- Generator: Adobe Illustrator 17.1.0, SVG Export Plug-In . SVG Version: 6.00 Build 0)  -->
<!DOCTYPE svg PUBLIC "-//W3C//DTD SVG 1.1//EN" "http://www.w3.org/Graphics/SVG/1.1/DTD/svg11.dtd">
<svg version="1.1" id="Layer_1" xmlns="http://www.w3.org/2000/svg" xmlns:xlink="http://www.w3.org/1999/xlink" x="0px" y="0px"
	 viewBox="-49 141 512 512" style="enable-background:new -49 141 512 512;" xml:space="preserve">
<linearGradient id="SVGID_1_" gradientUnits="userSpaceOnUse" x1="204.2706" y1="142.1831" x2="211.0546" y2="650.9821">
	<stop  offset="0" style="stop-color:#32A457"/>
	<stop  offset="0.0046" style="stop-color:#32A357"/>
	<stop  offset="0.1173" style="stop-color:#2C924D"/>
	<stop  offset="0.257" style="stop-color:#298747"/>
	<stop  offset="0.4538" style="stop-color:#278043"/>
	<stop  offset="1" style="stop-color:#267E42"/>
</linearGradient>
<path style="fill:url(#SVGID_1_);" d="M339.538,211.468c-5.812-21.296-25.328-36.999-48.442-36.999
	c-6.529,0-12.77,1.253-18.496,3.53C266.788,156.702,247.272,141,224.157,141c-22.898,0-42.558,15.385-48.442,36.999
	c-5.727-2.277-11.966-3.53-18.496-3.53c-27.682,0-50.092,22.521-50.092,50.203v190.826l-15.655-15.542
	c-19.573-19.574-51.42-19.574-70.993,0c-19.624,19.623-19.626,51.368,0,70.993c62.668,62.668,73.028,73.829,122.685,129.458
	c28.611,33.428,70.014,52.594,113.626,52.594c82.734,0,150.61-66.857,151.442-149.094c0.002-0.109,0.003-0.218,0.003-0.327
	c0-6.533,0-236.733,0-245.438c0-27.682-22.521-50.203-50.203-50.203C351.505,207.938,345.264,209.191,339.538,211.468z
	 M374.768,258.141v161.05c-24.18-22.774-56.328-36.313-91.421-36.313c-60.617,0-109.933,49.315-109.933,109.932
	c0,50.338,40.954,91.292,91.293,91.292c41.459,0,75.005-33.314,76.371-75.843c1.522-47.313-44.322-69.903-75.819-52.163
	c-15.485,8.72-24.366,25.594-24.366,46.295c0,9.242,7.493,16.734,16.734,16.734c9.242,0,16.734-7.493,16.734-16.734
	c0-5.935,1.271-13.726,7.321-17.133c9.001-5.067,26.62,0.929,25.945,21.925c-0.783,24.364-19.636,43.449-42.921,43.449
	c-31.885,0-57.824-25.939-57.824-57.823c0-42.162,34.301-76.463,76.464-76.463c39.965,0,75.511,23.365,91.421,59.781v27.288
	c-0.565,64.033-53.474,116.115-117.977,116.115c-33.865,0-66.047-14.944-88.294-40.999c-0.08-0.094-0.161-0.186-0.242-0.278
	c-50.355-56.412-61.054-67.916-124.108-130.97c-6.543-6.544-6.544-17.116,0-23.661c6.543-6.543,17.116-6.544,23.661,0l44.11,44.11
	c10.5,10.501,28.567,3.066,28.567-11.832V224.672c0-9.227,7.507-16.734,16.734-16.734c9.227,0,16.846,7.507,16.846,16.734v110.374
	c0,9.242,7.381,16.734,16.623,16.734s16.734-7.493,16.734-16.734c0-7.918,0-136.034,0-143.842c0-9.155,7.389-16.734,16.734-16.734
	c9.227,0,16.736,7.507,16.736,16.734c0,7.683,0,135.991,0,143.842c0,9.242,7.493,16.734,16.734,16.734
	c9.242,0,16.734-7.493,16.734-16.734V224.672c0-9.227,7.507-16.734,16.734-16.734c9.227,0,16.734,7.507,16.734,16.734
	c0,13.37,0,99.452,0,110.374c0,9.242,7.493,16.734,16.734,16.734c9.242,0,16.734-7.493,16.734-16.734v-76.905
	c0-9.227,7.507-16.734,16.734-16.734S374.768,248.914,374.768,258.141z"/>
</svg>
